TITLE ""
FILE "Disc3Track25.mp3" MP3
  TRACK 01 AUDIO
    TITLE "Disc3Track25_01"
    INDEX 01 00:00:00
  TRACK 02 AUDIO
    TITLE "Disc3Track25_02"
    INDEX 01 00:04:43
  TRACK 03 AUDIO
    TITLE "Disc3Track25_03"
    INDEX 01 00:04:59
  TRACK 04 AUDIO
    TITLE "Disc3Track25_04"
    INDEX 01 00:06:07
  TRACK 05 AUDIO
    TITLE "Disc3Track25_05"
    INDEX 01 00:09:27
  TRACK 06 AUDIO
    TITLE "Disc3Track25_06"
    INDEX 01 00:10:44
  TRACK 07 AUDIO
    TITLE "Disc3Track25_07"
    INDEX 01 00:13:70
  TRACK 08 AUDIO
    TITLE "Disc3Track25_08"
    INDEX 01 00:14:22
  TRACK 09 AUDIO
    TITLE "Disc3Track25_09"
    INDEX 01 00:15:45
  TRACK 10 AUDIO
    TITLE "Disc3Track25_10"
    INDEX 01 00:17:28
  TRACK 11 AUDIO
    TITLE "Disc3Track25_11"
    INDEX 01 00:18:53
  TRACK 12 AUDIO
    TITLE "Disc3Track25_12"
    INDEX 01 00:19:19
  TRACK 13 AUDIO
    TITLE "Disc3Track25_13"
    INDEX 01 00:20:42
  TRACK 14 AUDIO
    TITLE "Disc3Track25_14"
    INDEX 01 00:21:46
  TRACK 15 AUDIO
    TITLE "Disc3Track25_15"
    INDEX 01 00:22:69
  TRACK 16 AUDIO
    TITLE "Disc3Track25_16"
    INDEX 01 00:23:37
  TRACK 17 AUDIO
    TITLE "Disc3Track25_17"
    INDEX 01 00:24:60
  TRACK 18 AUDIO
    TITLE "Disc3Track25_18"
    INDEX 01 00:26:04
  TRACK 19 AUDIO
    TITLE "Disc3Track25_19"
    INDEX 01 00:27:27
  TRACK 20 AUDIO
    TITLE "Disc3Track25_20"
    INDEX 01 00:27:66
  TRACK 21 AUDIO
    TITLE "Disc3Track25_21"
    INDEX 01 00:29:16
  TRACK 22 AUDIO
    TITLE "Disc3Track25_22"
    INDEX 01 00:32:63
  TRACK 23 AUDIO
    TITLE "Disc3Track25_23"
    INDEX 01 00:34:11
  TRACK 24 AUDIO
    TITLE "Disc3Track25_24"
    INDEX 01 00:38:23
  TRACK 25 AUDIO
    TITLE "Disc3Track25_25"
    INDEX 01 00:38:54
  TRACK 26 AUDIO
    TITLE "Disc3Track25_26"
    INDEX 01 00:40:04
  TRACK 27 AUDIO
    TITLE "Disc3Track25_27"
    INDEX 01 00:42:40
  TRACK 28 AUDIO
    TITLE "Disc3Track25_28"
    INDEX 01 00:43:65
  TRACK 29 AUDIO
    TITLE "Disc3Track25_29"
    INDEX 01 00:44:21
  TRACK 30 AUDIO
    TITLE "Disc3Track25_30"
    INDEX 01 00:45:40
  TRACK 31 AUDIO
    TITLE "Disc3Track25_31"
    INDEX 01 00:46:42
  TRACK 32 AUDIO
    TITLE "Disc3Track25_32"
    INDEX 01 00:47:61
  TRACK 33 AUDIO
    TITLE "Disc3Track25_33"
    INDEX 01 00:52:01
  TRACK 34 AUDIO
    TITLE "Disc3Track25_34"
    INDEX 01 00:52:33
  TRACK 35 AUDIO
    TITLE "Disc3Track25_35"
    INDEX 01 00:53:54
  TRACK 36 AUDIO
    TITLE "Disc3Track25_36"
    INDEX 01 00:55:62
  TRACK 37 AUDIO
    TITLE "Disc3Track25_37"
    INDEX 01 00:57:08
  TRACK 38 AUDIO
    TITLE "Disc3Track25_38"
    INDEX 01 00:57:49
  TRACK 39 AUDIO
    TITLE "Disc3Track25_39"
    INDEX 01 00:58:68
  TRACK 40 AUDIO
    TITLE "Disc3Track25_40"
    INDEX 01 01:00:03
  TRACK 41 AUDIO
    TITLE "Disc3Track25_41"
    INDEX 01 01:01:22
  TRACK 42 AUDIO
    TITLE "Disc3Track25_42"
    INDEX 01 01:08:37
  TRACK 43 AUDIO
    TITLE "Disc3Track25_43"
    INDEX 01 01:08:71
  TRACK 44 AUDIO
    TITLE "Disc3Track25_44"
    INDEX 01 01:10:19
  TRACK 45 AUDIO
    TITLE "Disc3Track25_45"
    INDEX 01 01:11:30
  TRACK 46 AUDIO
    TITLE "Disc3Track25_46"
    INDEX 01 01:12:53
  TRACK 47 AUDIO
    TITLE "Disc3Track25_47"
    INDEX 01 01:13:17
  TRACK 48 AUDIO
    TITLE "Disc3Track25_48"
    INDEX 01 01:14:42
  TRACK 49 AUDIO
    TITLE "Disc3Track25_49"
    INDEX 01 01:16:12
  TRACK 50 AUDIO
    TITLE "Disc3Track25_50"
    INDEX 01 01:17:34
  TRACK 51 AUDIO
    TITLE "Disc3Track25_51"
    INDEX 01 01:17:66
  TRACK 52 AUDIO
    TITLE "Disc3Track25_52"
    INDEX 01 01:19:16
  TRACK 53 AUDIO
    TITLE "Disc3Track25_53"
    INDEX 01 01:20:58
  TRACK 54 AUDIO
    TITLE "Disc3Track25_54"
    INDEX 01 01:22:08
